<?xml version="1.0" encoding="utf-8"?>
<!-- Generator: Adobe Illustrator 15.0.0, SVG Export Plug-In . SVG Version: 6.00 Build 0)  -->
<!DOCTYPE svg PUBLIC "-//W3C//DTD SVG 1.1//EN" "http://www.w3.org/Graphics/SVG/1.1/DTD/svg11.dtd">
<svg version="1.1" id="Layer_1" xmlns="http://www.w3.org/2000/svg" xmlns:xlink="http://www.w3.org/1999/xlink" x="0px" y="0px"
	 width="512px" height="512px" viewBox="0 0 512 512" enable-background="new 0 0 512 512" xml:space="preserve">
<path fill="#FFFFFF" d="M256,512C114.836,512,0,397.164,0,256S114.836,0,256,0s256,114.836,256,256S397.164,512,256,512z M256,32
	C132.48,32,32,132.48,32,256c0,123.52,100.48,224,224,224c123.52,0,224-100.48,224-224C480,132.48,379.52,32,256,32z"/>
<path fill="#FFFFFF" d="M346.668,181.332H165.332c-8.832,0-16-7.168-16-16s7.168-16,16-16h181.336c8.832,0,16,7.168,16,16
	S355.5,181.332,346.668,181.332z"/>
<path fill="#FFFFFF" d="M346.668,272H165.332c-8.832,0-16-7.168-16-16s7.168-16,16-16h181.336c8.832,0,16,7.168,16,16
	S355.5,272,346.668,272z"/>
<path fill="#FFFFFF" d="M346.668,362.668H165.332c-8.832,0-16-7.168-16-16s7.168-16,16-16h181.336c8.832,0,16,7.168,16,16
	S355.5,362.668,346.668,362.668z"/>
</svg>
